<?xml version="1.0" encoding="UTF-8"?>
<svg version="1.1" xmlns="http://www.w3.org/2000/svg" width="1024" height="1024">
<path d="M0 0 C2.43604014 -0.00346129 4.87207872 -0.00822901 7.30811405 -0.01418173 C12.58157189 -0.02405945 17.85490815 -0.0247269 23.12836075 -0.01704025 C30.97046398 -0.00564086 38.81249005 -0.01152083 46.65459284 -0.02066517 C60.66472745 -0.03642496 74.6748209 -0.03510819 88.68495938 -0.02642844 C100.94574921 -0.01887012 113.20652399 -0.01691709 125.46731567 -0.02049637 C126.68909983 -0.0208401 126.68909983 -0.0208401 127.93556649 -0.02119078 C131.24230453 -0.02212485 134.54904256 -0.02308006 137.85578058 -0.02407007 C168.85078859 -0.03323902 199.84577045 -0.02493947 230.84077443 -0.00877938 C258.35439423 0.00545654 285.86797236 0.00418262 313.3815918 -0.01016235 C344.32132703 -0.02623986 375.26103918 -0.03258866 406.20077801 -0.02332556 C409.50135485 -0.02236347 412.80193169 -0.02142494 416.10250854 -0.02049637 C416.91514455 -0.02025914 417.72778056 -0.0200219 418.56504191 -0.01977748 C430.81559459 -0.01637068 443.06613054 -0.0203454 455.31668091 -0.02793503 C469.2515644 -0.03652532 483.18640044 -0.03434167 497.12127805 -0.0180928 C504.91205253 -0.00930701 512.70272416 -0.0086754 520.4934959 -0.02003132 C526.32073876 -0.02758564 532.14789164 -0.01934708 537.97512424 -0.0051076 C540.32484619 -0.00176895 542.67458199 -0.0034331 545.02429497 -0.01073496 C575.05966998 -0.09687892 604.88669666 6.56810867 627.78491211 27.38095093 C628.60991211 28.08864624 629.43491211 28.79634155 630.28491211 29.52548218 C652.53495703 48.89251823 667.46608009 75.86975044 670.78491211 105.38095093 C671.31157525 113.43965009 671.19094564 121.5245495 671.16586304 129.59603882 C671.16932433 132.03207896 671.17409205 134.46811754 671.18004477 136.90415287 C671.18992249 142.17761071 671.19058994 147.45094697 671.18290329 152.72439957 C671.1715039 160.5665028 671.17738387 168.40852886 671.18652821 176.25063166 C671.202288 190.26076627 671.20097122 204.27085972 671.19229147 218.2809982 C671.18473316 230.54178803 671.18278012 242.80256281 671.18635941 255.06335449 C671.18670314 256.28513865 671.18670314 256.28513865 671.18705382 257.53160531 C671.18798789 260.83834335 671.1889431 264.14508137 671.18993311 267.45181939 C671.19910205 298.44682741 671.1908025 329.44180927 671.17464242 360.43681325 C671.1604065 387.95043305 671.16168042 415.46401118 671.17602539 442.97763062 C671.19210289 473.91736585 671.1984517 504.85707799 671.1891886 535.79681683 C671.1882265 539.09739367 671.18728798 542.39797051 671.18635941 545.69854736 C671.18600356 546.91750138 671.18600356 546.91750138 671.18564052 548.16108073 C671.18223372 560.41163341 671.18620844 572.66216936 671.19379807 584.91271973 C671.20238835 598.84760322 671.20020471 612.78243926 671.18395583 626.71731687 C671.17517005 634.50809135 671.17453844 642.29876298 671.18589436 650.08953472 C671.19344868 655.91677758 671.18521012 661.74393046 671.17097063 667.57116306 C671.16763199 669.92088501 671.16929613 672.27062081 671.176598 674.62033379 C671.26274196 704.6557088 664.59775437 734.48273548 643.78491211 757.38095093 C643.0772168 758.20595093 642.36952148 759.03095093 641.64038086 759.88095093 C622.27334481 782.13099585 595.2961126 797.0621189 565.78491211 800.38095093 C557.72621295 800.90761407 549.64131354 800.78698446 541.56982422 800.76190186 C539.13378407 800.76536315 536.6977455 800.77013087 534.26171017 800.77608359 C528.98825233 800.78596131 523.71491607 800.78662876 518.44146347 800.77894211 C510.59936024 800.76754271 502.75733417 800.77342268 494.91523138 800.78256703 C480.90509677 800.79832681 466.89500332 800.79701004 452.88486484 800.78833029 C440.62407501 800.78077198 428.36330023 800.77881894 416.10250854 800.78239822 C414.88072439 800.78274196 414.88072439 800.78274196 413.63425773 800.78309263 C410.32751969 800.78402671 407.02078166 800.78498192 403.71404364 800.78597193 C372.71903563 800.79514087 341.72405376 800.78684132 310.72904979 800.77068123 C283.21542999 800.75644532 255.70185185 800.75771924 228.18823242 800.77206421 C197.24849719 800.78814171 166.30878504 800.79449051 135.36904621 800.78522742 C132.06846937 800.78426532 128.76789252 800.7833268 125.46731567 800.78239822 C124.65467966 800.78216099 123.84204365 800.78192376 123.00478231 800.78167934 C110.75422963 800.77827254 98.50369368 800.78224726 86.25314331 800.78983688 C72.31825982 800.79842717 58.38342378 800.79624353 44.44854617 800.77999465 C36.65777169 800.77120886 28.86710005 800.77057725 21.07632832 800.78193317 C15.24908546 800.7894875 9.42193258 800.78124894 3.59469998 800.76700945 C1.24497802 800.76367081 -1.10475777 800.76533495 -3.45447075 800.77263682 C-33.48984576 800.85878078 -63.31687244 794.19379319 -86.21508789 773.38095093 C-87.04008789 772.67325562 -87.86508789 771.9655603 -88.71508789 771.23641968 C-110.96513281 751.86938363 -125.89625587 724.89215142 -129.21508789 695.38095093 C-129.74175103 687.32225177 -129.62112142 679.23735236 -129.59603882 671.16586304 C-129.59950011 668.72982289 -129.60426783 666.29378432 -129.61022055 663.85774899 C-129.62009827 658.58429115 -129.62076572 653.31095489 -129.61307907 648.03750229 C-129.60167968 640.19539906 -129.60755965 632.35337299 -129.61670399 624.5112702 C-129.63246378 610.50113559 -129.631147 596.49104214 -129.62246726 582.48090366 C-129.61490894 570.22011382 -129.61295591 557.95933905 -129.61653519 545.69854736 C-129.61676434 544.88402459 -129.6169935 544.06950182 -129.6172296 543.23029654 C-129.61816367 539.92355851 -129.61911888 536.61682048 -129.62010889 533.31008246 C-129.62927784 502.31507445 -129.62097829 471.32009258 -129.6048182 440.32508861 C-129.59058228 412.81146881 -129.5918562 385.29789067 -129.60620117 357.78427124 C-129.62227868 326.84453601 -129.62862748 295.90482386 -129.61936438 264.96508503 C-129.61840229 261.66450819 -129.61746376 258.36393134 -129.61653519 255.06335449 C-129.61629795 254.25071848 -129.61606072 253.43808247 -129.6158163 252.60082113 C-129.6124095 240.35026844 -129.61638422 228.09973249 -129.62397385 215.84918213 C-129.63256413 201.91429864 -129.63038049 187.97946259 -129.61413161 174.04458499 C-129.60534583 166.25381051 -129.60471422 158.46313887 -129.61607014 150.67236714 C-129.62362446 144.84512428 -129.6153859 139.0179714 -129.60114641 133.1907388 C-129.59780777 130.84101684 -129.59947191 128.49128105 -129.60677378 126.14156806 C-129.69291774 96.10619306 -123.02793015 66.27916638 -102.21508789 43.38095093 C-101.50739258 42.55595093 -100.79969727 41.73095093 -100.07055664 40.88095093 C-73.68322903 10.56556229 -39.069452 -0.1214105 0 0 Z M96.52319336 186.75204468 C90.90943881 193.73136169 87.24770341 202.16420813 83.3527832 210.17050171 C81.77060876 213.41023917 80.15280048 216.62968148 78.52319336 219.84579468 C72.85005282 231.06020086 67.33557186 242.34296247 61.94873047 253.69735718 C57.95632886 262.08753162 53.79563405 270.38897562 49.62084961 278.68954468 C46.09484677 285.71648398 42.6542828 292.77768698 39.28491211 299.88095093 C35.38619751 308.10017089 31.37119616 316.25339918 27.28491211 324.38095093 C4.28446444 367.67872841 4.28446444 367.67872841 6.26928711 415.32235718 C9.59330627 424.54255317 13.81624987 433.42877403 17.86322021 442.34609985 C19.56489068 446.1029366 21.25422771 449.86532456 22.94506836 453.62704468 C25.23418293 458.71850865 27.52420364 463.80955426 29.81884766 468.89852905 C34.82411369 480.00127943 39.78871632 491.12123646 44.72241211 502.25595093 C51.37290747 517.26182141 58.11388456 532.22579228 64.90283203 547.16952515 C68.52193418 555.13982998 72.12399656 563.1151891 75.63256836 571.13485718 C76.2194109 572.46964121 76.80640156 573.80436013 77.39355469 575.13900757 C78.44556469 577.53068446 79.48371271 579.92676967 80.51416016 582.32797241 C88.62626712 600.77350883 102.14003402 615.90728607 120.65991211 624.25595093 C121.25876221 624.53011841 121.8576123 624.80428589 122.47460938 625.08676147 C137.48099089 631.41423298 153.03396399 630.81615731 168.99731445 630.78500366 C171.64334736 630.79071322 174.28935502 630.79758048 176.93537903 630.80580139 C183.34909682 630.82290733 189.76271629 630.82384659 196.17645095 630.81858849 C201.39481103 630.8145302 206.61314228 630.81600993 211.83150101 630.82133675 C212.57710748 630.82208517 213.32271395 630.82283359 214.09091455 630.82360469 C215.60610838 630.82513633 217.12130221 630.82667468 218.63649602 630.82821966 C232.81270611 630.84191499 246.98886086 630.83652793 261.16506965 630.82503445 C274.10264484 630.81510498 287.04007694 630.82804306 299.97763006 630.85196864 C313.29875156 630.8764158 326.61980658 630.88595376 339.94095004 630.87931591 C347.40502563 630.87583616 354.86899128 630.87797298 362.33304977 630.89556694 C368.68679286 630.91035945 375.04034857 630.91083313 381.39408825 630.89349603 C384.62862835 630.88504108 387.86276962 630.88490738 391.09730339 630.89814758 C404.5900414 630.94913392 416.89910683 630.68000056 429.78491211 626.38095093 C430.74078909 626.07004737 431.69666607 625.75914381 432.68150902 625.43881893 C449.68043055 619.60348845 464.27953191 605.58290841 472.14254761 589.6257782 C475.71306449 581.97771997 478.80315242 574.26779842 481.62084961 566.31454468 C482.2895777 564.45092445 482.95830681 562.58730458 483.62707996 560.72370052 C484.32837985 558.76594135 485.02678331 556.80717237 485.72427368 554.84805298 C487.18407027 550.74798519 488.65207067 546.65088514 490.12158203 542.55429077 C491.6104413 538.4029198 493.09903826 534.25145817 494.58494568 530.09902954 C498.4044648 519.42648253 502.26170287 508.76801122 506.14489746 498.11846924 C507.72872897 493.7744008 509.30936158 489.42916848 510.89038086 485.08407593 C511.20182037 484.22829453 511.51325989 483.37251312 511.83413696 482.49079895 C515.4911266 472.44163514 519.14634403 462.3918382 522.79159546 452.33840942 C523.52172194 450.32593417 524.25266275 448.31375412 524.98452759 446.3019104 C528.48637941 436.67430072 531.95200592 427.0380166 535.21459961 417.32626343 C535.46219025 416.59366302 535.70978088 415.86106262 535.96487427 415.10626221 C538.47521065 407.54468683 539.0234886 400.92069427 539.09741211 393.00595093 C539.12641602 392.00950562 539.15541992 391.0130603 539.18530273 389.98641968 C539.29675897 376.52593619 534.59161 364.14104129 529.59350586 351.82235718 C529.09014991 350.56350834 528.58758365 349.3043435 528.08573914 348.04489136 C527.02401775 345.38489665 525.95713626 342.72706079 524.88580322 340.07092285 C523.19049212 335.86768439 521.50708073 331.65974207 519.82543945 327.45101929 C517.83021757 322.45949923 515.83248106 317.46900318 513.83096313 312.48000431 C509.53689894 301.77582712 505.28649268 291.05461099 501.04971313 280.32763672 C499.91320006 277.45177086 498.77457952 274.57674852 497.63525391 271.70199585 C494.05519731 262.6668123 490.48611588 253.62755538 486.94247437 244.57801819 C485.22414031 240.1916789 483.50102857 235.80722354 481.77752686 231.4229126 C480.96382077 229.34907918 480.15241183 227.27434261 479.34356689 225.1986084 C467.53295428 194.13191337 467.53295428 194.13191337 442.34741211 173.63095093 C428.24826493 167.63254494 414.07235944 167.75966017 399.78491211 173.38095093 C399.04756836 173.66970093 398.31022461 173.95845093 397.55053711 174.25595093 C385.52705024 179.64247304 376.76303424 189.64446724 371.37084961 201.48641968 C368.81297048 208.30436369 367.60985383 214.51957239 367.47241211 221.81845093 C367.4350293 223.09591187 367.39764648 224.3733728 367.35913086 225.68954468 C367.88596354 237.0907667 373.19959926 248.49615682 377.41381836 258.93563843 C377.9622724 260.30913255 378.51009683 261.68287823 379.05734253 263.05685425 C380.51252363 266.70583703 381.97575976 270.35153726 383.4405632 273.99666595 C384.97003613 277.80713004 386.49162729 281.62073765 388.01367188 285.43417358 C389.85470736 290.04558372 391.69634326 294.65674865 393.54142761 299.26654053 C397.16873279 308.32906843 400.78178581 317.3969419 404.37084961 326.47470093 C404.99750771 328.05954536 404.99750771 328.05954536 405.63682556 329.67640686 C407.59755467 334.63779137 409.55524625 339.60036306 411.51074219 344.56381226 C414.83021651 352.98039016 418.17858068 361.38048465 421.64819336 369.73641968 C422.51002026 371.82735159 423.37101631 373.91862421 424.23196411 376.00991821 C425.00079352 377.86129192 425.78783067 379.70507277 426.57568359 381.5484314 C427.02113525 382.6288269 427.46658691 383.70922241 427.92553711 384.82235718 C428.31257813 385.73702759 428.69961914 386.651698 429.09838867 387.59408569 C430.70043791 394.09742568 427.95624746 400.29400238 425.74975586 406.36141968 C425.43964569 407.23043915 425.12953552 408.09945862 424.81002808 408.99481201 C423.78733194 411.85507205 422.75501741 414.71175488 421.72241211 417.56845093 C420.99952327 419.58317252 420.27711895 421.59806801 419.55517578 423.61312866 C417.30924527 429.87299554 415.04917184 436.12769367 412.78491211 442.38095093 C412.43182983 443.35624756 412.07874756 444.33154419 411.71496582 445.33639526 C407.39638336 457.26032702 403.05676593 469.17657522 398.71313477 481.09140015 C395.85613012 488.92854784 392.99950905 496.76581225 390.15560913 504.60772705 C389.57968354 506.19404061 389.00257422 507.77992495 388.42422485 509.36535645 C387.63527049 511.52835684 386.85022486 513.69273601 386.06616211 515.85751343 C385.62336914 517.07519409 385.18057617 518.29287476 384.72436523 519.54745483 C383.68001005 522.19981807 383.68001005 522.19981807 383.78491211 524.38095093 C313.49491211 524.38095093 243.20491211 524.38095093 170.78491211 524.38095093 C169.79491211 521.41095093 168.80491211 518.44095093 167.78491211 515.38095093 C166.74858156 512.94018184 165.67149665 510.51631608 164.55444336 508.11141968 C164.24738968 507.44595123 163.940336 506.78048279 163.62397766 506.09484863 C162.9636779 504.66446893 162.30138925 503.23500592 161.63726807 501.80639648 C159.82524554 497.90661813 158.03014391 493.99905944 156.23413086 490.09188843 C155.86288086 489.28494034 155.49163086 488.47799225 155.10913086 487.64659119 C151.30366883 479.36085295 147.59911624 471.03145266 143.90991211 462.69345093 C137.23815027 447.62427348 130.49503419 432.58813661 123.72290039 417.56381226 C123.3562326 416.75025269 122.98956482 415.93669312 122.61178589 415.09848022 C121.93280685 413.59224991 121.25357123 412.08613522 120.57400513 410.58016968 C119.95670895 409.2112522 119.343676 407.8404031 118.73522949 406.4675293 C118.06161396 404.98849542 117.35520566 403.52419851 116.62658691 402.07147217 C114.36117845 397.4230166 113.08035946 394.51445935 114.78491211 389.38095093 C115.86417794 386.82951167 116.98049787 384.38497459 118.21459961 381.91220093 C118.56071289 381.20343811 118.90682617 380.49467529 119.26342773 379.76443481 C120.38813426 377.46619506 121.52384474 375.17359295 122.65991211 372.88095093 C123.44194376 371.28848127 124.2233529 369.69570576 125.00415039 368.10263062 C129.6087074 358.72253842 134.26680601 349.36898001 138.96655273 340.03622437 C142.58866445 332.82772738 146.06078789 325.55214188 149.52075195 318.26473999 C153.018206 310.92367172 156.63141838 303.64546215 160.28491211 296.38095093 C165.35596872 286.29188693 170.30306558 276.15230962 175.13647461 265.94735718 C176.93574638 262.14882022 178.76640164 258.36769349 180.62084961 254.59579468 C181.07886963 253.65647095 181.53688965 252.71714722 182.00878906 251.74935913 C182.86963883 249.98511168 183.73741406 248.2242177 184.61376953 246.46762085 C191.22634918 232.83441332 191.74555554 218.02517713 187.12084961 203.64266968 C181.47094412 189.84830978 171.19452643 179.15528531 157.66772461 172.95126343 C136.07974138 164.93621274 112.4858241 169.77298014 96.52319336 186.75204468 Z " fill="#FFFFFF" transform="translate(241.215087890625,111.61904907226563)"/>
</svg>
